{
  "asset": {
    "version": "2.0",
    "generator": "sengine"
  },
  "scene": 0,
  "scenes": [
    {
      "nodes": [
        0,
        1,
        2
      ]
    }
  ],
  "nodes": [
    {
      "name": "Base",
      "mesh": 0,
      "translation": [
        0,
        0.1,
        0
      ],
      "scale": [
        1.4,
        0.2,
        1.4
      ]
    },
    {
      "name": "Column",
      "mesh": 0,
      "translation": [
        0,
        1,
        0
      ],
      "scale": [
        0.12,
        1.8,
        0.12
      ]
    },
    {
      "name": "Pivot",
      "translation": [
        0,
        1.9,
        0
      ],
      "children": [
        3,
        4,
        5
      ]
    },
    {
      "name": "Arm",
      "mesh": 1,
      "scale": [
        2,
        0.08,
        0.08
      ]
    },
    {
      "name": "Left",
      "mesh": 1,
      "translation": [
        -0.85,
        -0.5,
        0
      ],
      "scale": [
        0.35,
        0.7,
        0.35
      ]
    },
    {
      "name": "Right",
      "mesh": 2,
      "translation": [
        0.85,
        -0.5,
        0
      ],
      "scale": [
        0.35,
        0.7,
        0.35
      ]
    }
  ],
  "meshes": [
    {
      "primitives": [
        {
          "attributes": {
            "POSITION": 0,
            "NORMAL": 1
          },
          "indices": 2,
          "material": 0,
          "targets": [
            {
              "POSITION": 3
            }
          ]
        }
      ],
      "weights": [
        0.15
      ],
      "extras": {
        "targetNames": [
          "Stretch"
        ]
      }
    },
    {
      "primitives": [
        {
          "attributes": {
            "POSITION": 0,
            "NORMAL": 1
          },
          "indices": 2,
          "material": 1,
          "targets": [
            {
              "POSITION": 3
            }
          ]
        }
      ],
      "weights": [
        0.15
      ],
      "extras": {
        "targetNames": [
          "Stretch"
        ]
      }
    },
    {
      "primitives": [
        {
          "attributes": {
            "POSITION": 0,
            "NORMAL": 1
          },
          "indices": 2,
          "material": 2,
          "targets": [
            {
              "POSITION": 3
            }
          ]
        }
      ],
      "weights": [
        0.15
      ],
      "extras": {
        "targetNames": [
          "Stretch"
        ]
      }
    }
  ],
  "materials": [
    {
      "pbrMetallicRoughness": {
        "baseColorFactor": [
          0.13,
          0.19,
          0.24,
          1
        ],
        "metallicFactor": 0.05,
        "roughnessFactor": 0.5
      }
    },
    {
      "pbrMetallicRoughness": {
        "baseColorFactor": [
          0.88,
          0.55,
          0.16,
          1
        ],
        "metallicFactor": 0.05,
        "roughnessFactor": 0.5
      }
    },
    {
      "pbrMetallicRoughness": {
        "baseColorFactor": [
          0.15,
          0.65,
          0.7,
          1
        ],
        "metallicFactor": 0.05,
        "roughnessFactor": 0.5
      }
    }
  ],
  "animations": [
    {
      "name": "Turn",
      "samplers": [
        {
          "input": 4,
          "output": 5
        },
        {
          "input": 4,
          "output": 7
        }
      ],
      "channels": [
        {
          "sampler": 0,
          "target": {
            "node": 2,
            "path": "rotation"
          }
        },
        {
          "sampler": 1,
          "target": {
            "node": 5,
            "path": "weights"
          }
        }
      ]
    },
    {
      "name": "Sway",
      "samplers": [
        {
          "input": 4,
          "output": 6
        },
        {
          "input": 4,
          "output": 7
        }
      ],
      "channels": [
        {
          "sampler": 0,
          "target": {
            "node": 2,
            "path": "rotation"
          }
        },
        {
          "sampler": 1,
          "target": {
            "node": 5,
            "path": "weights"
          }
        }
      ]
    }
  ],
  "buffers": [
    {
      "byteLength": 1216,
      "uri": "mobile.bin"
    }
  ],
  "bufferViews": [
    {
      "buffer": 0,
      "byteOffset": 0,
      "byteLength": 288
    },
    {
      "buffer": 0,
      "byteOffset": 288,
      "byteLength": 288
    },
    {
      "buffer": 0,
      "byteOffset": 576,
      "byteLength": 72
    },
    {
      "buffer": 0,
      "byteOffset": 648,
      "byteLength": 288
    },
    {
      "buffer": 0,
      "byteOffset": 936,
      "byteLength": 20
    },
    {
      "buffer": 0,
      "byteOffset": 956,
      "byteLength": 80
    },
    {
      "buffer": 0,
      "byteOffset": 1036,
      "byteLength": 80
    },
    {
      "buffer": 0,
      "byteOffset": 1116,
      "byteLength": 20
    },
    {
      "buffer": 0,
      "byteOffset": 1136,
      "byteLength": 80
    }
  ],
  "accessors": [
    {
      "bufferView": 0,
      "componentType": 5126,
      "count": 24,
      "type": "VEC3",
      "min": [
        -0.5,
        -0.5,
        -0.5
      ],
      "max": [
        0.5,
        0.5,
        0.5
      ]
    },
    {
      "bufferView": 1,
      "componentType": 5126,
      "count": 24,
      "type": "VEC3"
    },
    {
      "bufferView": 2,
      "componentType": 5123,
      "count": 36,
      "type": "SCALAR"
    },
    {
      "bufferView": 3,
      "componentType": 5126,
      "count": 24,
      "type": "VEC3",
      "min": [
        0,
        0.0,
        0
      ],
      "max": [
        0,
        0.4,
        0
      ]
    },
    {
      "bufferView": 4,
      "componentType": 5126,
      "count": 5,
      "type": "SCALAR",
      "min": [
        0
      ],
      "max": [
        4
      ]
    },
    {
      "bufferView": 5,
      "componentType": 5126,
      "count": 5,
      "type": "VEC4"
    },
    {
      "bufferView": 6,
      "componentType": 5126,
      "count": 5,
      "type": "VEC4"
    },
    {
      "bufferView": 7,
      "componentType": 5126,
      "count": 5,
      "type": "SCALAR"
    },
    {
      "bufferView": 8,
      "componentType": 5126,
      "count": 5,
      "type": "VEC4"
    }
  ]
}
